<svg xmlns="http://www.w3.org/2000/svg" version="1.1" xmlns:xlink="http://www.w3.org/1999/xlink" xmlns:svgjs="http://svgjs.dev/svgjs" width="1000" height="888" viewBox="0 0 1000 888"><g transform="matrix(1,0,0,1,-0.163438226769415,0.3595141700404838)"><svg viewBox="0 0 278 247" data-background-color="#ffffff" preserveAspectRatio="xMidYMid meet" height="888" width="1000" xmlns="http://www.w3.org/2000/svg" xmlns:xlink="http://www.w3.org/1999/xlink"><g id="tight-bounds" transform="matrix(1,0,0,1,0.0454358270418993,-0.09999999999999432)"><svg viewBox="0 0 277.9091283459162 247.2" height="247.2" width="277.9091283459162"><g><svg viewBox="0 0 277.9091283459162 247.2" height="247.2" width="277.9091283459162"><g><svg viewBox="0 0 277.9091283459162 247.2" height="247.2" width="277.9091283459162"><g id="textblocktransform"><svg viewBox="0 0 277.9091283459162 247.2" height="247.2" width="277.9091283459162" id="textblock"><g><svg viewBox="0 0 277.9091283459162 247.2" height="247.2" width="277.9091283459162"><g transform="matrix(1,0,0,1,0,0)"><svg width="277.9091283459162" viewBox="3 -36.43000030517578 40.95000076293945 36.43000030517578" height="247.2" data-palette-color="#ffa458"><path d="M21.63-16.65L21.63-16.65Q22.13-15.7 22.59-14.68 23.05-13.65 23.48-12.58L23.48-12.58Q23.9-13.68 24.38-14.71 24.85-15.75 25.35-16.73L25.35-16.73 34.7-35.13Q34.95-35.6 35.21-35.86 35.48-36.13 35.8-36.25 36.13-36.38 36.54-36.4 36.95-36.43 37.5-36.43L37.5-36.43 43.95-36.43 43.95 0 36.5 0 36.5-20.95Q36.5-22.48 36.65-24.25L36.65-24.25 27-5.53Q26.55-4.65 25.79-4.2 25.03-3.75 24.05-3.75L24.05-3.75 22.9-3.75Q21.93-3.75 21.16-4.2 20.4-4.65 19.95-5.53L19.95-5.53 10.25-24.28Q10.35-23.4 10.4-22.54 10.45-21.68 10.45-20.95L10.45-20.95 10.45 0 3 0 3-36.43 9.45-36.43Q10-36.43 10.41-36.4 10.83-36.38 11.15-36.25 11.48-36.13 11.74-35.86 12-35.6 12.25-35.13L12.25-35.13 21.63-16.65Z" opacity="1" transform="matrix(1,0,0,1,0,0)" fill="#ffa458" class="wordmark-text-0" data-fill-palette-color="primary" id="text-0"></path></svg></g></svg></g></svg></g></svg></g><g></g></svg></g><defs></defs></svg><rect width="277.9091283459162" height="247.2" fill="none" stroke="none" visibility="hidden"></rect></g></svg></g></svg>